<svg xmlns="http://www.w3.org/2000/svg" focusable="false" fill-opacity="1" width="12" height="12" viewBox="0 0 16 16" fill="black"><path fill-rule="evenodd" clip-rule="evenodd" d="M8.00085 6.58514L12.5928 1.99318C12.9837 1.60229 13.6175 1.60229 14.0083 1.99318C14.3992 2.38406 14.3992 3.01781 14.0083 3.4087L9.41703 8.00001L14.0083 12.5913C14.3992 12.9822 14.3992 13.616 14.0083 14.0068C13.6175 14.3977 12.9837 14.3977 12.5928 14.0068L8.00085 9.41488L3.40888 14.0068C3.018 14.3977 2.38425 14.3977 1.99336 14.0068C1.60247 13.616 1.60247 12.9822 1.99336 12.5913L6.58467 8.00001L1.99336 3.4087C1.60247 3.01781 1.60247 2.38406 1.99336 1.99318C2.38425 1.60229 3.018 1.60229 3.40888 1.99318L8.00085 6.58514Z" fill="currentColor"></path><mask id="mask0" maskUnits="userSpaceOnUse" x="1" y="1" width="14" height="14"><path fill-rule="evenodd" clip-rule="evenodd" d="M8.00085 6.58514L12.5928 1.99318C12.9837 1.60229 13.6175 1.60229 14.0083 1.99318C14.3992 2.38406 14.3992 3.01781 14.0083 3.4087L9.41703 8.00001L14.0083 12.5913C14.3992 12.9822 14.3992 13.616 14.0083 14.0068C13.6175 14.3977 12.9837 14.3977 12.5928 14.0068L8.00085 9.41488L3.40888 14.0068C3.018 14.3977 2.38425 14.3977 1.99336 14.0068C1.60247 13.616 1.60247 12.9822 1.99336 12.5913L6.58467 8.00001L1.99336 3.4087C1.60247 3.01781 1.60247 2.38406 1.99336 1.99318C2.38425 1.60229 3.018 1.60229 3.40888 1.99318L8.00085 6.58514Z" fill="white"></path></mask><g mask="url(#mask0)"><rect width="16" height="16"></rect></g></svg>