<svg xmlns="http://www.w3.org/2000/svg" focusable="false" width="18" height="12" viewBox="0 0 21 14" fill="white"><path class="Path--fill" d="M14.5247 0.219442C14.2317 -0.0733252 13.7568 -0.0731212 13.4641 0.219898C13.1713 0.512917 13.1715 0.98779 13.4645 1.28056L18.5 6.5L19 7L18.5 7.75C18 8.5 13.4645 12.7194 13.4645 12.7194C13.1715 13.0122 13.1713 13.4871 13.4641 13.7801C13.7568 14.0731 14.2317 14.0733 14.5247 13.7806L20.7801 7.53056C20.9209 7.38989 21 7.19902 21 7C21 6.80098 20.9209 6.61011 20.7801 6.46944L14.5247 0.219442Z" fill="white"></path><path class="Path--stroke" d="M14 4L4 4" stroke="white" stroke-width="1.5" stroke-linecap="round"></path><path class="Path--stroke" d="M14 4V1" stroke="white" stroke-width="1.5" stroke-linecap="round"></path><path class="Path--stroke" d="M14 13V10" stroke="white" stroke-width="1.5" stroke-linecap="round"></path><path class="Path--fill" d="M4 9.25C3.58579 9.25 3.25 9.58579 3.25 10C3.25 10.4142 3.58579 10.75 4 10.75V9.25ZM14 9.25H4V10.75H14V9.25Z" fill="white"></path><path class="Path--fill" d="M1.00007 6.25C0.585853 6.24996 0.250037 6.58572 0.25 6.99993C0.249963 7.41415 0.58572 7.74996 0.999934 7.75L1.00007 6.25ZM14.0001 6.25115L1.00007 6.25L0.999934 7.75L13.9999 7.75115L14.0001 6.25115Z" fill="white"></path></svg>