<svg xmlns="http://www.w3.org/2000/svg" focusable="false" viewBox="0 0 250 113.3" width="31" height="14" fill="none"><path class="Path--fill" fill="#1D3944" d="M39.8 1.7C41.5.6 43.4 0 45.5 0c2.7 0 5.3 1.1 7.2 3 1.9 1.9 3 4.5 3 7.2 0 2-.6 4-1.7 5.7-1.1 1.7-2.7 3-4.6 3.8-1.9.8-3.9 1-5.9.6-2-.4-3.8-1.4-5.2-2.8-1.4-1.4-2.4-3.3-2.8-5.2-.4-2-.2-4 .6-5.9.7-2 2-3.5 3.7-4.7zM0 1.1h18.3v110.6H0V1.1zM247.2 32.7c-6.3 13.6-13.8 26.6-22.3 38.9l25.1 40h-21.6L213 87c-15.5 17.7-30.8 26.3-45.6 26.3-18 0-25.4-12.9-25.4-27.5V75.3c0-19.3-2-24.8-8.6-23.9-12.5 1.7-31.6 30.2-44 60.3H72.3v-79h18.3v39.5c10.4-17.6 20-32.7 35.4-38.5 8.9-3.4 16.5-1.9 20.4-.2 14.2 6.3 14.2 21.5 14 42v8.7c0 7.4 2.1 10.7 7.1 11.2 3 .3 6-.4 8.6-1.9V1.1h18.3v79.2s15.9-14.5 32.6-47.5h20.2zM54.6 32.8H36.3v78.9h18.3V32.8z"></path></svg>