<svg width="239" height="42" viewBox="0 0 239 42" fill="none" xmlns="http://www.w3.org/2000/svg">
<path d="M23.8547 30.6494L30.7811 23.7229L40 32.9419V4.87216C40 3.57998 39.4867 2.34073 38.573 1.42702C37.6593 0.513314 36.42 0 35.1278 0H0V35.1234C0 36.4156 0.513304 37.6548 1.42701 38.5685C2.34072 39.4822 3.57997 39.9955 4.87215 39.9955H33.2023L23.8547 30.6494ZM4.24908 11.4093V4.2328H25.4131L4.24908 25.3968V11.4093ZM18.1996 30.8432L11.2095 37.8288L4.27721 30.898L4.33049 30.8432L4.27721 30.7885L30.8669 4.20616L37.8555 11.1947L22.6855 26.3647L18.1996 30.8506V30.8432Z" fill="url(#paint0_linear_25_9)"/>
<path d="M51.5824 34V7.81818H61.4006C63.4119 7.81818 65.0994 8.16761 66.4631 8.86648C67.8352 9.56534 68.8707 10.5455 69.5696 11.8068C70.277 13.0597 70.6307 14.5213 70.6307 16.1918C70.6307 17.8707 70.2727 19.3281 69.5568 20.5639C68.8494 21.7912 67.8054 22.7415 66.4247 23.4148C65.044 24.0795 63.348 24.4119 61.3366 24.4119H54.3438V20.4744H60.6974C61.8736 20.4744 62.8366 20.3125 63.5866 19.9886C64.3366 19.6562 64.8906 19.1747 65.2486 18.544C65.6151 17.9048 65.7983 17.1207 65.7983 16.1918C65.7983 15.2628 65.6151 14.4702 65.2486 13.8139C64.8821 13.1491 64.3239 12.6463 63.5739 12.3054C62.8239 11.956 61.8565 11.7812 60.6719 11.7812H56.3253V34H51.5824ZM65.108 22.1364L71.5895 34H66.2969L59.9304 22.1364H65.108ZM83.2038 34.3835C81.2351 34.3835 79.5348 33.9744 78.103 33.1562C76.6797 32.3295 75.5845 31.1619 74.8175 29.6534C74.0504 28.1364 73.6669 26.3509 73.6669 24.2969C73.6669 22.277 74.0504 20.5043 74.8175 18.9787C75.593 17.4446 76.6754 16.2514 78.0646 15.3991C79.4538 14.5384 81.0859 14.108 82.9609 14.108C84.1712 14.108 85.3132 14.304 86.3871 14.696C87.4695 15.0795 88.424 15.6761 89.2507 16.4858C90.0859 17.2955 90.7422 18.3267 91.2195 19.5795C91.6967 20.8239 91.9354 22.3068 91.9354 24.0284V25.4474H75.8402V22.3281H87.4993C87.4908 21.4418 87.299 20.6534 86.924 19.9631C86.549 19.2642 86.0249 18.7145 85.3516 18.3139C84.6868 17.9134 83.9112 17.7131 83.0249 17.7131C82.0788 17.7131 81.2479 17.9432 80.532 18.4034C79.8161 18.8551 79.2578 19.4517 78.8572 20.1932C78.4652 20.9261 78.2649 21.7315 78.2564 22.6094V25.3324C78.2564 26.4744 78.4652 27.4545 78.8828 28.2727C79.3004 29.0824 79.8842 29.7045 80.6342 30.1392C81.3842 30.5653 82.2621 30.7784 83.2678 30.7784C83.9411 30.7784 84.5504 30.6847 85.0959 30.4972C85.6413 30.3011 86.1143 30.0156 86.5149 29.6406C86.9155 29.2656 87.218 28.8011 87.4226 28.2472L91.7436 28.733C91.4709 29.875 90.951 30.8722 90.184 31.7244C89.4254 32.5682 88.4538 33.2244 87.2692 33.6932C86.0845 34.1534 84.7294 34.3835 83.2038 34.3835ZM104.416 34.3835C102.456 34.3835 100.772 33.9531 99.3661 33.0923C97.9684 32.2315 96.8903 31.0426 96.1317 29.5256C95.3817 28 95.0067 26.2443 95.0067 24.2585C95.0067 22.2642 95.3903 20.5043 96.1573 18.9787C96.9244 17.4446 98.0067 16.2514 99.4045 15.3991C100.811 14.5384 102.473 14.108 104.39 14.108C105.984 14.108 107.395 14.402 108.622 14.9901C109.858 15.5696 110.842 16.392 111.575 17.4574C112.308 18.5142 112.725 19.75 112.828 21.1648H108.404C108.225 20.2187 107.799 19.4304 107.126 18.7997C106.461 18.1605 105.571 17.8409 104.454 17.8409C103.508 17.8409 102.677 18.0966 101.961 18.608C101.245 19.1108 100.687 19.8352 100.287 20.7812C99.8945 21.7273 99.6985 22.8608 99.6985 24.1818C99.6985 25.5199 99.8945 26.6705 100.287 27.6335C100.679 28.5881 101.228 29.3253 101.936 29.8452C102.652 30.3565 103.491 30.6122 104.454 30.6122C105.136 30.6122 105.745 30.4844 106.282 30.2287C106.828 29.9645 107.284 29.5852 107.65 29.0909C108.017 28.5966 108.268 27.9957 108.404 27.2884H112.828C112.717 28.6776 112.308 29.9091 111.6 30.983C110.893 32.0483 109.93 32.8835 108.711 33.4886C107.493 34.0852 106.061 34.3835 104.416 34.3835ZM125.193 34.3835C123.276 34.3835 121.614 33.9616 120.207 33.1179C118.801 32.2741 117.71 31.0937 116.935 29.5767C116.168 28.0597 115.784 26.2869 115.784 24.2585C115.784 22.2301 116.168 20.4531 116.935 18.9276C117.71 17.402 118.801 16.2173 120.207 15.3736C121.614 14.5298 123.276 14.108 125.193 14.108C127.111 14.108 128.773 14.5298 130.179 15.3736C131.585 16.2173 132.672 17.402 133.439 18.9276C134.214 20.4531 134.602 22.2301 134.602 24.2585C134.602 26.2869 134.214 28.0597 133.439 29.5767C132.672 31.0937 131.585 32.2741 130.179 33.1179C128.773 33.9616 127.111 34.3835 125.193 34.3835ZM125.219 30.6761C126.259 30.6761 127.128 30.3906 127.827 29.8196C128.526 29.2401 129.045 28.4645 129.386 27.4929C129.736 26.5213 129.911 25.4389 129.911 24.2457C129.911 23.044 129.736 21.9574 129.386 20.9858C129.045 20.0057 128.526 19.2259 127.827 18.6463C127.128 18.0668 126.259 17.777 125.219 17.777C124.153 17.777 123.267 18.0668 122.56 18.6463C121.861 19.2259 121.337 20.0057 120.987 20.9858C120.646 21.9574 120.476 23.044 120.476 24.2457C120.476 25.4389 120.646 26.5213 120.987 27.4929C121.337 28.4645 121.861 29.2401 122.56 29.8196C123.267 30.3906 124.153 30.6761 125.219 30.6761ZM143.158 22.4943V34H138.53V14.3636H142.953V17.7003H143.184C143.635 16.6009 144.355 15.7273 145.344 15.0795C146.341 14.4318 147.573 14.108 149.039 14.108C150.394 14.108 151.574 14.3977 152.58 14.9773C153.594 15.5568 154.378 16.3963 154.932 17.4957C155.495 18.5952 155.772 19.929 155.763 21.4972V34H151.135V22.2131C151.135 20.9006 150.794 19.8736 150.113 19.1321C149.439 18.3906 148.506 18.0199 147.313 18.0199C146.503 18.0199 145.783 18.1989 145.152 18.5568C144.53 18.9062 144.04 19.4134 143.682 20.0781C143.333 20.7429 143.158 21.5483 143.158 22.4943ZM169.033 34.3835C167.073 34.3835 165.39 33.9531 163.983 33.0923C162.586 32.2315 161.507 31.0426 160.749 29.5256C159.999 28 159.624 26.2443 159.624 24.2585C159.624 22.2642 160.007 20.5043 160.775 18.9787C161.542 17.4446 162.624 16.2514 164.022 15.3991C165.428 14.5384 167.09 14.108 169.007 14.108C170.601 14.108 172.012 14.402 173.239 14.9901C174.475 15.5696 175.459 16.392 176.192 17.4574C176.925 18.5142 177.343 19.75 177.445 21.1648H173.022C172.843 20.2187 172.417 19.4304 171.743 18.7997C171.078 18.1605 170.188 17.8409 169.071 17.8409C168.125 17.8409 167.294 18.0966 166.578 18.608C165.863 19.1108 165.304 19.8352 164.904 20.7812C164.512 21.7273 164.316 22.8608 164.316 24.1818C164.316 25.5199 164.512 26.6705 164.904 27.6335C165.296 28.5881 165.846 29.3253 166.553 29.8452C167.269 30.3565 168.108 30.6122 169.071 30.6122C169.753 30.6122 170.363 30.4844 170.9 30.2287C171.445 29.9645 171.901 29.5852 172.267 29.0909C172.634 28.5966 172.885 27.9957 173.022 27.2884H177.445C177.334 28.6776 176.925 29.9091 176.218 30.983C175.51 32.0483 174.547 32.8835 173.328 33.4886C172.11 34.0852 170.678 34.3835 169.033 34.3835ZM181.245 34V14.3636H185.873V34H181.245ZM183.572 11.5767C182.839 11.5767 182.208 11.3338 181.68 10.848C181.151 10.3537 180.887 9.76136 180.887 9.07102C180.887 8.37216 181.151 7.77983 181.68 7.29403C182.208 6.79971 182.839 6.55256 183.572 6.55256C184.313 6.55256 184.944 6.79971 185.464 7.29403C185.992 7.77983 186.256 8.37216 186.256 9.07102C186.256 9.76136 185.992 10.3537 185.464 10.848C184.944 11.3338 184.313 11.5767 183.572 11.5767ZM195.26 7.81818V34H190.632V7.81818H195.26ZM204.646 7.81818V34H200.018V7.81818H204.646ZM209.405 34V14.3636H214.033V34H209.405ZM211.732 11.5767C210.999 11.5767 210.368 11.3338 209.84 10.848C209.311 10.3537 209.047 9.76136 209.047 9.07102C209.047 8.37216 209.311 7.77983 209.84 7.29403C210.368 6.79971 210.999 6.55256 211.732 6.55256C212.473 6.55256 213.104 6.79971 213.624 7.29403C214.152 7.77983 214.417 8.37216 214.417 9.07102C214.417 9.76136 214.152 10.3537 213.624 10.848C213.104 11.3338 212.473 11.5767 211.732 11.5767ZM227.357 34.3835C225.44 34.3835 223.778 33.9616 222.371 33.1179C220.965 32.2741 219.874 31.0937 219.099 29.5767C218.332 28.0597 217.948 26.2869 217.948 24.2585C217.948 22.2301 218.332 20.4531 219.099 18.9276C219.874 17.402 220.965 16.2173 222.371 15.3736C223.778 14.5298 225.44 14.108 227.357 14.108C229.275 14.108 230.937 14.5298 232.343 15.3736C233.749 16.2173 234.836 17.402 235.603 18.9276C236.379 20.4531 236.766 22.2301 236.766 24.2585C236.766 26.2869 236.379 28.0597 235.603 29.5767C234.836 31.0937 233.749 32.2741 232.343 33.1179C230.937 33.9616 229.275 34.3835 227.357 34.3835ZM227.383 30.6761C228.423 30.6761 229.292 30.3906 229.991 29.8196C230.69 29.2401 231.21 28.4645 231.55 27.4929C231.9 26.5213 232.075 25.4389 232.075 24.2457C232.075 23.044 231.9 21.9574 231.55 20.9858C231.21 20.0057 230.69 19.2259 229.991 18.6463C229.292 18.0668 228.423 17.777 227.383 17.777C226.317 17.777 225.431 18.0668 224.724 18.6463C224.025 19.2259 223.501 20.0057 223.151 20.9858C222.81 21.9574 222.64 23.044 222.64 24.2457C222.64 25.4389 222.81 26.5213 223.151 27.4929C223.501 28.4645 224.025 29.2401 224.724 29.8196C225.431 30.3906 226.317 30.6761 227.383 30.6761Z" fill="url(#paint1_linear_25_9)"/>
<defs>
<linearGradient id="paint0_linear_25_9" x1="-7.5" y1="15.5" x2="41.5" y2="22" gradientUnits="userSpaceOnUse">
<stop stop-color="#4240A1"/>
<stop offset="1" stop-color="#12B9ED"/>
</linearGradient>
<linearGradient id="paint1_linear_25_9" x1="49" y1="21" x2="231" y2="21" gradientUnits="userSpaceOnUse">
<stop stop-color="#3431B1"/>
<stop offset="1" stop-color="#12B9ED"/>
</linearGradient>
</defs>
</svg>
