<svg xmlns="http://www.w3.org/2000/svg" focusable="false" width="16" height="16" viewBox="0 0 12 12" fill="black"><path d="M6.1575 8.37054C6.17957 8.35597 7.202 7.75198 7.202 7.75198C7.42873 7.61821 7.70995 7.62683 7.92843 7.77424C7.92843 7.77424 10.2298 9.32858 10.2488 9.34453C10.5432 9.59284 10.5849 10.038 10.3419 10.3388C9.87479 10.9171 9.34381 11.3817 8.74762 11.7335C7.54988 12.4401 6.34798 11.5181 6.34798 11.5181C5.37118 10.7958 4.03956 9.05096 3.24295 7.64102C2.44633 6.23108 1.63343 4.18026 1.50968 2.95467C1.50968 2.95467 1.3292 1.43003 2.52694 0.723393C3.12313 0.371657 3.78238 0.134076 4.50601 0.00986731C4.88247 -0.0547422 5.2389 0.204723 5.30214 0.589407C5.3062 0.614133 5.47279 3.42796 5.47279 3.42796C5.48848 3.69501 5.35517 3.94819 5.12844 4.08195C5.12844 4.08195 4.10535 4.68476 4.08196 4.69701C4.32596 6.10048 5.07596 7.39952 6.1575 8.37054Z" fill-rule="evenodd"></path></svg>